<svg xmlns="http://www.w3.org/2000/svg" xmlns:xlink="http://www.w3.org/1999/xlink" width="2000" zoomAndPan="magnify" viewBox="0 0 1500 1499.999933" height="2000" preserveAspectRatio="xMidYMid meet" version="1.0"><defs><clipPath id="d56d5dd2e1"><path d="M 105.15625 357 L 736 357 L 736 1355 L 105.15625 1355 Z M 105.15625 357 " clip-rule="nonzero"/></clipPath><clipPath id="00e7a7c114"><path d="M 106.179688 60.328125 L 1394.296875 60.328125 L 1394.296875 1439.566406 L 106.179688 1439.566406 Z M 106.179688 60.328125 " clip-rule="nonzero"/></clipPath></defs><g clip-path="url(#d56d5dd2e1)"><path fill="#4a7fa7" d="M 106.546875 479.625 C 129.472656 717 230.285156 1088.804688 608.996094 1354.394531 C 654.132812 1326.066406 696.398438 1295.390625 735.6875 1262.464844 C 620.433594 1188.761719 524.214844 1099.558594 448.914062 996.445312 C 375.277344 895.613281 320.773438 780.636719 286.9375 654.710938 C 254.746094 534.941406 247.582031 428.253906 247.480469 357.707031 C 198.988281 375.609375 151.730469 397.144531 106.121094 422.261719 C 105.792969 438.785156 105.824219 458.074219 106.546875 479.625 " fill-opacity="1" fill-rule="nonzero"/></g><g clip-path="url(#00e7a7c114)"><path fill="#4a7fa7" d="M 1388.65625 249.214844 C 1385.460938 247.160156 1382.261719 245.125 1379.058594 243.109375 C 992.851562 -0.613281 501.984375 -0.613281 115.777344 243.109375 C 112.578125 245.125 109.375 247.160156 106.179688 249.214844 C 468.152344 80 893.753906 112.691406 1237.5 329.617188 C 1240.695312 331.632812 1243.890625 333.664062 1247.097656 335.722656 C 1247.097656 335.722656 1342.703125 1019.175781 746.71875 1439.1875 C 746.957031 1439.3125 747.1875 1439.441406 747.417969 1439.566406 C 1498.679688 1035.433594 1388.65625 249.214844 1388.65625 249.214844 " fill-opacity="1" fill-rule="nonzero"/></g></svg>