<svg xmlns="http://www.w3.org/2000/svg" xmlns:xlink="http://www.w3.org/1999/xlink" width="2000" zoomAndPan="magnify" viewBox="0 0 1500 1499.999933" height="2000" preserveAspectRatio="xMidYMid meet" version="1.0"><defs><clipPath id="f18111d157"><path d="M 106.195312 34.933594 L 1415.25 34.933594 L 1415.25 265.183594 L 106.195312 265.183594 Z M 106.195312 34.933594 " clip-rule="nonzero"/></clipPath><clipPath id="6b33f26774"><path d="M 714.359375 265.066406 L 1415.226562 265.066406 L 1415.226562 1491.765625 L 714.359375 1491.765625 Z M 714.359375 265.066406 " clip-rule="nonzero"/></clipPath></defs><g clip-path="url(#f18111d157)"><path fill="#c48c0c" d="M 1409.519531 226.894531 C 1406.269531 224.804688 1403.019531 222.738281 1399.761719 220.6875 C 1007.28125 -26.992188 508.433594 -26.992188 115.953125 220.6875 C 112.703125 222.738281 109.445312 224.804688 106.195312 226.894531 C 474.054688 54.929688 906.574219 88.148438 1255.902344 308.601562 C 1259.152344 310.648438 1262.402344 312.714844 1265.660156 314.804688 C 1265.660156 314.804688 1362.816406 1009.367188 757.148438 1436.207031 C 757.390625 1436.332031 757.625 1436.464844 757.859375 1436.589844 C 1521.332031 1025.886719 1409.519531 226.894531 1409.519531 226.894531 " fill-opacity="1" fill-rule="nonzero"/></g><g clip-path="url(#6b33f26774)"><path fill="#f3ac0c" d="M 1409.195312 218.257812 C 1405.773438 216.054688 1402.351562 213.878906 1398.925781 211.722656 C 985.738281 -49.023438 460.574219 -49.023438 47.390625 211.722656 C 43.96875 213.878906 40.539062 216.054688 37.121094 218.257812 C 424.382812 37.21875 879.71875 72.195312 1247.476562 304.273438 C 1250.898438 306.429688 1254.316406 308.605469 1257.746094 310.804688 C 1257.746094 310.804688 1360.03125 1042.007812 722.410156 1491.363281 C 722.664062 1491.492188 722.910156 1491.632812 723.15625 1491.765625 C 1526.902344 1059.398438 1409.195312 218.257812 1409.195312 218.257812 " fill-opacity="1" fill-rule="nonzero"/></g></svg>