<svg xmlns="http://www.w3.org/2000/svg" viewBox="0 0 1200 360">

  <defs>
    <!-- Stripe gradients -->
    <linearGradient id="g1" x1="0" y1="1" x2="1" y2="0">
      <stop offset="0%" stop-color="#071A33"/>
      <stop offset="100%" stop-color="#0B2A55"/>
    </linearGradient>
    <linearGradient id="g2" x1="0" y1="1" x2="1" y2="0">
      <stop offset="0%" stop-color="#0A274F"/>
      <stop offset="100%" stop-color="#123A6F"/>
    </linearGradient>
    <linearGradient id="g3" x1="0" y1="1" x2="1" y2="0">
      <stop offset="0%" stop-color="#113C7C"/>
      <stop offset="100%" stop-color="#1F5FAF"/>
    </linearGradient>
    <linearGradient id="g4" x1="0" y1="1" x2="1" y2="0">
      <stop offset="0%" stop-color="#1A5FCC"/>
      <stop offset="100%" stop-color="#2D7FF9"/>
    </linearGradient>
    <linearGradient id="g5" x1="0" y1="1" x2="1" y2="0">
      <stop offset="0%" stop-color="#5AAEE8"/>
      <stop offset="100%" stop-color="#8BD2FF"/>
    </linearGradient>

    <clipPath id="markClip">
      <rect x="70" y="60" width="190" height="220" rx="18" ry="18"/>
    </clipPath>

    <filter id="softShadow" x="-30%" y="-30%" width="160%" height="160%">
      <feGaussianBlur in="SourceAlpha" stdDeviation="4"/>
      <feOffset dx="0" dy="4"/>
      <feColorMatrix type="matrix"
        values="0 0 0 0 0
                0 0 0 0 0
                0 0 0 0 0
                0 0 0 .20 0"/>
      <feMerge>
        <feMergeNode/>
        <feMergeNode in="SourceGraphic"/>
      </feMerge>
    </filter>
  </defs>

  <!-- Left Mark (scaled proportionally) -->
  <g filter="url(#softShadow)">
    <rect x="70" y="60" width="190" height="220" rx="18" ry="18"
          fill="#0C1420" stroke="#223043" stroke-opacity="0.35"/>

    <g clip-path="url(#markClip)">
      <path d="M-30,280 L-30,250 L150,60 L180,60 L0,250 Z" fill="url(#g1)"/>
      <path d="M-30,300 L-30,270 L165,60 L195,60 L-5,270 Z" fill="url(#g2)"/>
      <path d="M-30,320 L-30,290 L180,60 L210,60 L-10,290 Z" fill="url(#g3)"/>
      <path d="M-30,340 L-30,315 L195,60 L225,60 L-12,315 Z" fill="url(#g4)"/>
      <path d="M-30,360 L-30,340 L210,60 L240,60 L-15,340 Z" fill="url(#g5)"/>
    </g>
  </g>

  <!-- Wordmark (repositioned for compact layout) -->
  <g font-family="Montserrat, Poppins, Arial, sans-serif">
    <text x="300" y="175"
          font-size="110"
          letter-spacing="-1.2"
          font-weight="800"
          fill="#F3F6FB">
      Reyders
    </text>

    <text x="302" y="265"
          font-size="50"
          letter-spacing="3"
          font-weight="600"
          fill="#A6AFBE">
        Smart Building Integrators.
    </text>

    <!-- <rect x="302" y="242"
          width="230"
          height="2"
          rx="1"
          fill="#2D7FF9"
          opacity="0.45"/> -->
  </g>

</svg>